<?xml version="1.0" encoding="utf-8"?>
<!-- Generator: Adobe Illustrator 16.0.0, SVG Export Plug-In . SVG Version: 6.00 Build 0)  -->
<!DOCTYPE svg PUBLIC "-//W3C//DTD SVG 1.1//EN" "http://www.w3.org/Graphics/SVG/1.1/DTD/svg11.dtd">
<svg version="1.1" id="Layer_1" xmlns="http://www.w3.org/2000/svg" xmlns:xlink="http://www.w3.org/1999/xlink" x="0px" y="0px"
	 width="597.725px" height="256.059px" viewBox="0 0 597.725 256.059" enable-background="new 0 0 597.725 256.059"
	 xml:space="preserve">
<g>
	<path fill="#4BC4D0" d="M372.196,54.773c9.453,0,18.664,0,28.639,0c0,2.174-0.003,4.118,0.002,6.063
		c0.051,22.809,0.025,45.619,0.229,68.426c0.035,3.954,0.746,7.969,1.67,11.831c1.234,5.159,4.322,8.964,9.959,9.513
		c5.562,0.541,10.663-1.529,12.654-6.688c2.512-6.506,4.851-13.516,5.084-20.381c0.709-20.779,0.367-41.596,0.433-62.396
		c0.007-1.965,0.002-3.931,0.002-6.285c9.771,0,18.979,0,28.687,0c0,39.104,0,78.191,0,117.949c-6.771,0-13.295,0.173-19.794-0.155
		c-1.209-0.061-2.899-1.942-3.357-3.32c-1.24-3.734-1.938-7.649-3.063-12.386c-1.361,1.701-2.271,2.691-3.018,3.792
		c-7.385,10.882-17.774,15.353-30.618,13.787c-13.44-1.638-21.843-9.474-25.005-22.514c-1.49-6.146-2.744-12.521-2.824-18.808
		c-0.316-24.996-0.134-49.998-0.111-74.998C371.763,57.149,372.021,56.101,372.196,54.773z"/>
	<path fill="#46C3CF" d="M27.985,138.384c4.772,2.443,8.296,4.866,12.197,6.104c6.528,2.073,13.228,4.314,19.979,4.817
		c11.593,0.865,19.092-9.735,16.155-21.492c-2.389-9.565-9.449-15.311-16.855-20.727C49.282,99.642,38.836,92.461,33.818,80.16
		c-5.838-14.313-6.226-28.876-0.008-43.01c6.328-14.383,18.202-21.189,33.747-21.984c13.323-0.682,25.439,2.856,37.199,9.898
		c-3.179,7.712-6.209,15.065-9.294,22.547c-5.634-2.138-10.837-4.699-16.337-6.093C60.653,36.844,56.032,51.696,59.017,63.92
		c1.765,7.225,7.23,11.554,12.612,15.985c8.122,6.689,17.124,12.641,23.995,20.45c15.972,18.154,12.606,52.966-5.7,66.626
		c-9.041,6.746-19.733,8.872-30.589,7.617c-9.271-1.071-18.363-3.859-27.444-6.235c-1.539-0.402-3.674-2.519-3.733-3.919
		C27.807,156.117,27.985,147.768,27.985,138.384z"/>
	<path fill="#46C3CF" d="M517.976,135.006c-5.021,12.135-9.587,22.851-13.854,33.685c-1.175,2.984-2.621,4.252-5.944,4.153
		c-8.009-0.24-16.027-0.078-25.065-0.078c0.961-2.12,1.593-3.668,2.349-5.153c8.502-16.694,16.943-33.423,25.6-50.036
		c1.934-3.707,2.243-6.652,0.137-10.61c-8.128-15.271-15.783-30.793-23.592-46.234c-0.871-1.722-1.594-3.519-2.814-6.243
		c9.633,0,18.311-0.167,26.968,0.18c1.306,0.052,2.975,2.294,3.694,3.877c4.518,9.912,8.813,19.923,13.762,31.219
		c1.77-3.993,3.105-6.833,4.294-9.734c2.967-7.24,5.962-14.473,8.741-21.785c1.05-2.764,2.489-3.942,5.597-3.854
		c7.951,0.229,15.912,0.076,24.96,0.076c-2.567,5.125-4.622,9.298-6.74,13.438c-6.891,13.457-13.692,26.96-20.798,40.305
		c-1.586,2.979-1.41,5.182,0.075,8.036c9.167,17.608,18.166,35.308,27.219,52.979c0.471,0.918,0.911,1.853,1.735,3.533
		c-9.594,0-18.461,0.132-27.313-0.15c-1.25-0.04-2.929-1.867-3.571-3.254c-4.134-8.922-8.029-17.956-12.019-26.946
		C520.455,140.294,519.457,138.21,517.976,135.006z"/>
	<path fill="#46C3CF" d="M289.782,172.454c-10.076,0-19.09,0-28.758,0c0-31.926,0-63.55,0-95.678c-4.581,0-8.522,0-12.312,0
		c-3.033-10.458-1.914-14.151,6.721-19.129c4.325-2.493,5.758-5.45,5.748-10.4c-0.013-6.487,0.597-13.126,2.082-19.432
		c2.656-11.286,9.984-18.346,21.586-20.551c10.817-2.055,21.324-1.304,32.041,3.737c-2.353,6.896-4.666,13.679-7.027,20.602
		c-3.934-0.475-7.473-1.054-11.036-1.292c-4.468-0.297-7.563,1.938-8.229,6.296c-0.865,5.662-1.087,11.421-1.644,17.81
		c7.122,0,13.237,0,19.692,0c0,7.591,0,14.58,0,22.183c-6.373,0-12.481,0-18.865,0C289.782,108.739,289.782,140.273,289.782,172.454
		z"/>
	<path fill="#46C3CF" d="M186.601,143.855c0,7.141,0.177,14.07-0.135,20.979c-0.071,1.563-1.483,3.744-2.884,4.468
		c-21.559,11.15-50.382,6.072-59.894-22.029c-5.125-15.141-6.099-30.633-4.282-46.344c0.791-6.834,1.604-13.817,3.682-20.325
		c8.122-25.441,25.438-30.776,47.099-27.747c18.206,2.547,18.906,4.541,12.8,21.436c-0.791,2.188-1.732,4.323-2.694,6.709
		c-3.508-1.335-6.639-2.754-9.903-3.725c-9.06-2.69-15.424,0.221-18.836,8.98c-1.499,3.85-2.503,8.04-2.874,12.152
		c-1.18,13.081-1.907,26.235,1.704,39.086c3.106,11.051,9.583,14.777,20.687,11.899
		C176.259,148.048,181.216,145.807,186.601,143.855z"/>
	<path fill="#46C3CF" d="M321.662,7.594c9.296,0,18.187,0,27.511,0c0,54.878,0,109.621,0,164.769c-8.988,0-18.002,0-27.511,0
		C321.662,117.671,321.662,62.945,321.662,7.594z"/>
	<path fill="#4BC4D0" d="M520.394,235.571c-12.643-2.443-25.274-4.932-37.929-7.32c-28.984-5.477-58.023-10.919-87.702-9.347
		c-12.673,0.672-25.313,2.56-37.88,4.472c-30.534,4.646-61.236,5.994-92.052,5.214c-35.835-0.907-71-6.054-105.11-17.441
		c-1.547-0.518-3.06-1.143-4.561-1.784c-0.243-0.104-0.335-0.558-1.119-1.97c9.462,1,18.284,1.384,26.895,2.94
		c29.933,5.41,60.141,6.713,90.356,5.063c27.215-1.486,54.466-3.804,81.462-7.502c42.838-5.869,84.549-1.605,125.617,10.797
		c14.378,4.343,28.416,9.813,42.609,14.771C520.785,234.165,520.589,234.867,520.394,235.571z"/>
	<path fill="#46C3CF" d="M204.348,54.813c9.378,0,18.398,0,27.714,0c0,39.273,0,78.198,0,117.539c-9.17,0-18.186,0-27.714,0
		C204.348,133.391,204.348,94.345,204.348,54.813z"/>
	<path fill="#4BC4D0" d="M19.908,199.586c16.032-4.071,31.672-4.377,47.306-3.783c26.362,1.001,51.743,7.262,76.988,14.548
		c20.046,5.787,40.29,11.024,60.677,15.441c13.812,2.993,28.026,4.125,42.052,6.144c1.342,0.193,2.628,0.771,3.865,1.524
		c-24.191,1.641-48.289,1.437-71.884-4.361c-27.706-6.807-55.07-15.052-82.878-21.374c-15.505-3.523-31.574-4.777-47.458-6.338
		c-8.763-0.861-17.672-0.229-26.515-0.327C21.632,201.055,21.208,200.499,19.908,199.586z"/>
	<path fill="#4BC4D0" d="M346.633,199.211c18.825-5.5,38.063-8.535,57.786-9.103c25.855-0.744,51.156,2.916,76.257,8.303
		c25.338,5.437,50.543,4.874,75.901,0.367c7.835-1.394,15.877-1.622,23.824-2.384c0.118,0.563,0.239,1.124,0.359,1.687
		c-8.22,2.161-16.367,4.662-24.671,6.423c-32.42,6.876-64.738,4.79-96.971-1.591c-29.814-5.901-59.853-7.894-90.17-5.146
		C361.528,198.44,354.073,198.74,346.633,199.211z"/>
	<path fill="#4BC4D0" d="M277.657,180.816c-8.354,1.346-16.674,2.966-25.069,3.978c-18.916,2.276-37.827,4.901-56.821,6.139
		c-14.624,0.953-29.313-0.367-43.093-6.921c3.48,0,6.968,0.145,10.44-0.024c18.282-0.885,36.608-1.315,54.828-2.929
		C237.87,179.294,257.718,177.261,277.657,180.816z"/>
	<path fill="#46C3CF" d="M218.673,8.543c9.652,0.465,15.248,6.382,14.781,15.628c-0.481,9.536-6.918,14.725-17.506,14.11
		c-8.658-0.502-13.566-6.739-13.09-16.637C203.282,12.849,209.039,8.079,218.673,8.543z"/>
	<path fill="#4BC4D0" d="M224.781,198.178c37.918-0.522,74.481-9.804,111.45-16.739c16.883-3.167,34.248-4.396,51.449-5.06
		c25.102-0.97,50.303-1.072,75.079,4.2c10.568,2.249,20.962,5.322,31.437,8.021c-0.125,0.644-0.249,1.286-0.374,1.93
		c-10.899-1.001-21.835-1.704-32.688-3.065c-22.32-2.799-44.625-2.336-67.011-0.947c-34.749,2.157-67.849,12.517-101.609,19.619
		c-26.005,5.471-52.271,6.734-78.686,3.197c0.729-1.21,1.237-2.65,2.226-3.58C218.858,203.117,221.858,200.688,224.781,198.178z"/>
	<path fill="#4BC4D0" d="M210.552,209.024c-17.958-2.585-36.063-4.428-53.837-7.944c-21.71-4.299-43.149-9.979-64.689-15.129
		c-2.216-0.53-4.323-1.519-6.48-2.294c0.077-0.438,0.154-0.877,0.231-1.314c9.6,0.936,19.23,1.636,28.795,2.851
		c30.797,3.911,61.571,8.011,92.352,12.054c0.526,0.068,1.024,0.341,1.536,0.52c-0.675,1.729-1.351,3.459-1.846,4.729
		C208.083,204.931,209.317,206.978,210.552,209.024z"/>
	<path fill="#46C3CF" d="M209.212,208.832c-1.234-2.047-1.661-3.902-3.13-6.339c0.496-1.27,1.171-2.998,1.846-4.729
		c5.44,0.137,11.866,0.269,17.307,0.406c-2.199,2.665-5.755,5.034-8.56,7.671c-0.988,0.93-1.276,2.394-2.005,3.604
		C213.577,209.344,210.269,209.024,209.212,208.832z"/>
</g>
</svg>
